<svg width="36" height="40" viewBox="0 0 36 40" fill="none" xmlns="http://www.w3.org/2000/svg">
<path fill-rule="evenodd" clip-rule="evenodd" d="M22.2184 0.0476572C21.9434 0.148457 21.742 0.333417 21.6193 0.597971L21.5583 0.729378L21.5509 2.53892C21.5446 4.07338 21.5377 4.34845 21.5056 4.34845C21.4848 4.34845 21.3854 4.33122 21.2847 4.31018C21.184 4.28911 20.89 4.24111 20.6314 4.2035C12.3723 3.00208 4.38166 7.57018 1.28432 15.2639C-1.1117 21.2156 -0.108794 28.0168 3.90464 33.034C8.10236 38.2814 14.893 40.7587 21.5046 39.4547C26.1544 38.5375 30.2626 35.8247 32.9063 31.9255C36.8458 26.1154 37.0369 18.6388 33.3993 12.6416C32.7635 11.5934 31.5384 9.98972 31.4352 10.0707C31.3768 10.1166 29.0578 12.1553 28.9029 12.2969L28.7787 12.4105L29.0353 12.7131C31.9554 16.1558 33.0647 20.8597 31.9945 25.2616C30.1189 32.9767 22.2995 37.6956 14.5379 35.7967C7.24644 34.0128 2.55169 26.8994 3.80035 19.5274C4.74076 13.975 8.87721 9.48423 14.3715 8.05054C16.5586 7.47985 19.0067 7.44352 21.2091 7.94913L21.5315 8.02316L21.5583 12.3478L21.6298 12.4993C21.808 12.8774 22.1186 13.0691 22.5518 13.0686C22.9936 13.0681 22.7204 13.3074 26.0235 10.0285C29.3693 6.70715 29.1083 7.0037 29.1073 6.52524C29.1063 6.08596 29.3459 6.35649 26.0612 3.08536C22.7742 -0.188077 23.0034 0.0149921 22.5799 0.00121017C22.4173 -0.00407822 22.3284 0.00735325 22.2184 0.0476572Z" fill="black"/>
<path d="M14.6079 16.4956C14.7194 16.2213 14.9542 16.0081 15.2535 15.9095C15.442 15.8474 15.7364 15.8582 15.9072 15.9335C16.1481 16.0397 24.4318 21.2064 24.5617 21.3314C24.9539 21.7092 24.9394 22.4052 24.532 22.7508C24.4144 22.8505 16.3927 27.8507 16.0102 28.0627C15.7723 28.1945 15.3712 28.2059 15.1183 28.0881C14.8309 27.9542 14.623 27.6817 14.5606 27.3574C14.5382 27.2405 14.5321 25.7903 14.538 21.9229L14.546 16.6479L14.6079 16.4956Z" fill="#8c0327"/>
</svg>

